<svg width="323" height="323" viewBox="0 0 323 323" fill="none" xmlns="http://www.w3.org/2000/svg">
<g clip-path="url(#clip0)">
<path opacity="0.8" d="M161.5 323C250.694 323 323 250.694 323 161.5C323 72.306 250.694 0 161.5 0C72.306 0 0 72.306 0 161.5C0 250.694 72.306 323 161.5 323Z" fill="url(#paint0_linear)"/>
</g>
<g clip-path="url(#clip1)">
<path opacity="0.8" d="M210.706 57.3521C197.782 66.314 196.778 87.2405 208.463 104.093C220.149 120.945 240.099 127.341 253.023 118.379C265.948 109.417 266.952 88.4906 255.266 71.6385C243.58 54.7864 223.63 48.3901 210.706 57.3521Z" fill="url(#paint1_linear)"/>
</g>
<g clip-path="url(#clip2)">
<path opacity="0.8" d="M274.135 150.745C266.55 151.387 261.12 160.407 262.007 170.892C262.895 181.377 269.764 189.357 277.349 188.715C284.935 188.073 290.365 179.052 289.477 168.567C288.59 158.082 281.721 150.103 274.135 150.745Z" fill="url(#paint2_linear)"/>
</g>
<defs>
<linearGradient id="paint0_linear" x1="215.447" y1="105.504" x2="25.3372" y2="302.834" gradientUnits="userSpaceOnUse">
<stop stop-color="#00B0FF"/>
<stop offset="1" stop-color="#081EDC"/>
</linearGradient>
<linearGradient id="paint1_linear" x1="231.384" y1="103.866" x2="247.077" y2="51.6917" gradientUnits="userSpaceOnUse">
<stop stop-color="#00B0FF"/>
<stop offset="1" stop-color="#086ADC"/>
</linearGradient>
<linearGradient id="paint2_linear" x1="271.712" y1="176.701" x2="291.823" y2="158.755" gradientUnits="userSpaceOnUse">
<stop stop-color="#00B0FF"/>
<stop offset="1" stop-color="#086ADC"/>
</linearGradient>
<clipPath id="clip0">
<rect width="323" height="323" fill="white"/>
</clipPath>
<clipPath id="clip1">
<rect width="56.954" height="74.2634" fill="white" transform="translate(276.425 102.152) rotate(145.262)"/>
</clipPath>
<clipPath id="clip2">
<rect width="27.5681" height="38.1058" fill="white" transform="translate(291.084 187.552) rotate(175.162)"/>
</clipPath>
</defs>
</svg>
