<svg width="822" height="137" viewBox="0 0 822 137" fill="none" xmlns="http://www.w3.org/2000/svg">
<path d="M30.728 48.88C30.728 63.76 42.152 71.152 53.768 71.152C65.192 71.152 76.712 63.952 76.712 48.88V1.36H41.48V15.76H59.912V48.496C59.912 53.488 57.416 55.792 53.768 55.792C49.064 55.792 47.528 51.856 47.528 47.536V43.888H30.728V48.88ZM86.831 35.248C86.831 55.408 101.423 71.152 122.735 71.152C144.047 71.152 158.639 55.408 158.639 35.248C158.639 15.568 144.047 0.207994 122.735 0.207994C101.423 0.207994 86.831 15.568 86.831 35.248ZM104.207 35.248C104.207 24.016 111.887 15.568 122.735 15.568C133.583 15.568 141.263 24.016 141.263 35.248C141.263 46.96 133.583 55.792 122.735 55.792C111.887 55.792 104.207 46.96 104.207 35.248ZM169.325 70H186.125V1.36H169.325V70ZM200.544 70H217.344V38.032C217.344 33.712 216.576 26.32 216.576 26.32H216.768C216.768 26.32 219.84 33.52 222.528 38.032L241.632 70H258.528V1.36H241.728V33.424C241.728 37.744 242.496 45.136 242.496 45.136H242.304C242.304 45.136 239.232 37.936 236.544 33.424L217.536 1.36H200.544V70ZM308.89 70H325.69V15.76H346.522V1.36H288.058V15.76H308.89V70ZM354.856 70H371.656V43.12H396.616V70H413.416V1.36H396.616V28.816H371.656V1.36H354.856V70ZM427.794 70H472.146V55.6H444.594V42.64H465.522V28.24H444.594V15.76H470.802V1.36H427.794V70ZM502.215 61.36C508.743 67.888 518.151 71.152 527.079 71.152C542.919 71.152 551.463 61.264 551.463 49.744C551.463 28.048 521.127 30.352 521.127 20.56C521.127 17.776 523.335 15.664 528.423 15.664C533.799 15.664 539.751 18.352 543.591 21.712L550.695 7.984C544.743 2.704 536.871 0.207994 529.191 0.207994C514.791 0.207994 504.327 8.56 504.327 21.232C504.327 42.736 534.663 41.2 534.663 50.896C534.663 53.584 532.263 55.696 527.559 55.696C521.415 55.696 514.887 51.952 511.047 48.592L502.215 61.36ZM576.922 70H593.722V15.76H614.554V1.36H556.09V15.76H576.922V70ZM610.056 70H627.336L631.464 55.6H652.872L657.096 70H674.376L651.048 1.36H633.384L610.056 70ZM635.4 42.16L639.336 28.816C640.584 24.496 642.12 17.008 642.12 17.008H642.312C642.312 17.008 643.848 24.496 645.096 28.816L648.936 42.16H635.4ZM681.294 70H698.094V46.864H705.966L718.158 70H736.878L723.534 46C721.902 43.12 720.942 41.872 720.942 41.872V41.68C727.758 38.224 731.214 30.256 731.214 22.96C731.214 12.976 726.318 5.96799 718.542 2.992C715.566 1.84 712.206 1.36 705.198 1.36H681.294V70ZM698.094 32.464V15.76H703.758C706.542 15.76 708.558 16.048 710.094 16.72C713.262 17.968 714.126 20.56 714.126 24.016C714.126 29.488 710.766 32.464 705.39 32.464H698.094ZM739.777 61.36C746.305 67.888 755.713 71.152 764.641 71.152C780.481 71.152 789.025 61.264 789.025 49.744C789.025 28.048 758.689 30.352 758.689 20.56C758.689 17.776 760.897 15.664 765.985 15.664C771.361 15.664 777.313 18.352 781.153 21.712L788.257 7.984C782.305 2.704 774.433 0.207994 766.753 0.207994C752.353 0.207994 741.889 8.56 741.889 21.232C741.889 42.736 772.225 41.2 772.225 50.896C772.225 53.584 769.825 55.696 765.121 55.696C758.977 55.696 752.449 51.952 748.609 48.592L739.777 61.36Z" fill="#0075FF"/>
<path d="M0.984 113.056C2.448 114.496 4.512 115.288 6.552 115.288C10.008 115.288 11.952 113.128 11.952 110.464C11.952 105.016 3.792 105.976 3.792 102.352C3.792 100.888 5.112 99.952 6.84 99.952C8.184 99.952 9.648 100.576 10.584 101.44L11.664 99.496C10.416 98.32 8.616 97.768 6.936 97.768C3.792 97.768 1.392 99.616 1.392 102.472C1.392 107.752 9.576 106.912 9.576 110.656C9.576 112.12 8.376 113.08 6.6 113.08C4.992 113.08 3.36 112.24 2.328 111.256L0.984 113.056ZM20.1101 115H22.4861V107.248H25.0061L29.5181 115H32.2301L26.9741 106.144V106.096L31.9181 98.056H29.3021L25.0061 105.184H22.4861V98.056H20.1101V115ZM43.3483 115H45.7003V107.824L51.3883 98.056H48.7003L45.5803 103.624C45.0523 104.608 44.5483 105.76 44.5483 105.76H44.5003C44.5003 105.76 43.9723 104.608 43.4683 103.624L40.3483 98.056H37.6603L43.3483 107.824V115ZM57.0324 113.056C58.4964 114.496 60.5604 115.288 62.6004 115.288C66.0564 115.288 68.0004 113.128 68.0004 110.464C68.0004 105.016 59.8404 105.976 59.8404 102.352C59.8404 100.888 61.1604 99.952 62.8884 99.952C64.2324 99.952 65.6964 100.576 66.6324 101.44L67.7124 99.496C66.4644 98.32 64.6644 97.768 62.9844 97.768C59.8404 97.768 57.4404 99.616 57.4404 102.472C57.4404 107.752 65.6244 106.912 65.6244 110.656C65.6244 112.12 64.4244 113.08 62.6484 113.08C61.0404 113.08 59.4084 112.24 58.3764 111.256L57.0324 113.056ZM75.1026 106.408C75.1026 111.4 78.7746 115.288 83.8146 115.288C88.8546 115.288 92.5026 111.4 92.5026 106.408C92.5026 101.536 88.8546 97.768 83.8146 97.768C78.7746 97.768 75.1026 101.536 75.1026 106.408ZM77.5506 106.408C77.5506 102.736 80.1906 99.928 83.8146 99.928C87.4146 99.928 90.0546 102.736 90.0546 106.408C90.0546 110.2 87.4146 113.104 83.8146 113.104C80.1906 113.104 77.5506 110.2 77.5506 106.408ZM100.716 115H103.092V107.776H109.02V105.712H103.092V100.12H110.052V98.056H100.716V115ZM121.805 115H124.157V100.12H129.989V98.056H115.973V100.12H121.805V115ZM146.236 113.056C147.7 114.496 149.764 115.288 151.804 115.288C155.26 115.288 157.204 113.128 157.204 110.464C157.204 105.016 149.044 105.976 149.044 102.352C149.044 100.888 150.364 99.952 152.092 99.952C153.436 99.952 154.9 100.576 155.836 101.44L156.916 99.496C155.668 98.32 153.868 97.768 152.188 97.768C149.044 97.768 146.644 99.616 146.644 102.472C146.644 107.752 154.828 106.912 154.828 110.656C154.828 112.12 153.628 113.08 151.852 113.08C150.244 113.08 148.612 112.24 147.58 111.256L146.236 113.056ZM164.306 106.408C164.306 111.4 167.978 115.288 173.018 115.288C178.058 115.288 181.706 111.4 181.706 106.408C181.706 101.536 178.058 97.768 173.018 97.768C167.978 97.768 164.306 101.536 164.306 106.408ZM166.754 106.408C166.754 102.736 169.394 99.928 173.018 99.928C176.618 99.928 179.258 102.736 179.258 106.408C179.258 110.2 176.618 113.104 173.018 113.104C169.394 113.104 166.754 110.2 166.754 106.408ZM189.92 115H192.296V107.776H198.224V105.712H192.296V100.12H199.256V98.056H189.92V115ZM211.008 115H213.36V100.12H219.192V98.056H205.176V100.12H211.008V115ZM229.397 115H232.133L235.085 104.008C235.397 102.904 235.613 101.632 235.613 101.632H235.709C235.709 101.632 235.925 102.904 236.213 104.008L239.189 115H241.901L246.365 98.056H243.917L240.773 110.488C240.557 111.4 240.461 112.288 240.461 112.288H240.413C240.413 112.288 240.269 111.424 240.029 110.488L236.717 98.056H234.629L231.293 110.488C231.053 111.424 230.909 112.288 230.909 112.288H230.861C230.861 112.288 230.741 111.4 230.525 110.488L227.573 98.056H225.077L229.397 115ZM251.432 115H253.856L255.56 110.128H261.944L263.648 115H266.096L260.024 98.056H257.504L251.432 115ZM256.184 108.16L258.08 102.808C258.368 101.92 258.728 100.384 258.728 100.384H258.776C258.776 100.384 259.16 101.92 259.448 102.808L261.32 108.16H256.184ZM273.479 115H275.855V108.256H279.479L283.055 115H285.743L282.143 108.424C281.855 107.896 281.663 107.656 281.663 107.656V107.608C283.511 106.984 284.687 105.112 284.687 102.952C284.687 100.792 283.631 99.232 281.999 98.512C281.303 98.2 280.487 98.056 278.855 98.056H273.479V115ZM275.855 106.192V100.12H278.663C279.743 100.12 280.271 100.216 280.703 100.408C281.759 100.864 282.287 101.848 282.287 103.072C282.287 104.944 281.111 106.192 279.263 106.192H275.855ZM293.349 115H303.621V112.936H295.725V107.488H301.797V105.424H295.725V100.12H303.213V98.056H293.349V115ZM321.608 110.272C321.608 113.104 323.96 115.288 327.464 115.288C331.112 115.288 333.344 113.128 333.344 109.36V107.104H335.6V105.04H333.344V102.736H330.992V105.04H327.848C325.256 105.04 324.752 103.432 324.752 102.376C324.752 100.72 326.072 99.784 327.752 99.784C328.184 99.784 328.664 99.832 329.024 99.928L329.624 98.032C328.928 97.864 328.256 97.768 327.56 97.768C324.536 97.768 322.328 99.328 322.328 102.136C322.328 104.032 323.288 105.304 324.584 105.88V105.928C322.712 106.528 321.608 108.376 321.608 110.272ZM324.032 110.128C324.032 108.232 325.376 107.104 327.776 107.104H330.992V109.24C330.992 111.904 329.648 113.104 327.464 113.104C325.352 113.104 324.032 111.76 324.032 110.128ZM351.669 115H354.093L355.797 110.128H362.181L363.885 115H366.333L360.261 98.056H357.741L351.669 115ZM356.421 108.16L358.317 102.808C358.605 101.92 358.965 100.384 358.965 100.384H359.013C359.013 100.384 359.397 101.92 359.685 102.808L361.557 108.16H356.421ZM373.716 115H376.092V108.736H379.932C383.028 108.736 385.236 106.576 385.236 103.36C385.236 100.144 383.028 98.056 379.932 98.056H373.716V115ZM376.092 106.672V100.12H379.572C381.564 100.12 382.836 101.344 382.836 103.36C382.836 105.4 381.564 106.672 379.548 106.672H376.092ZM393.071 115H395.447V108.736H399.287C402.383 108.736 404.591 106.576 404.591 103.36C404.591 100.144 402.383 98.056 399.287 98.056H393.071V115ZM395.447 106.672V100.12H398.927C400.919 100.12 402.191 101.344 402.191 103.36C402.191 105.4 400.919 106.672 398.903 106.672H395.447ZM411.178 113.056C412.642 114.496 414.706 115.288 416.746 115.288C420.202 115.288 422.146 113.128 422.146 110.464C422.146 105.016 413.986 105.976 413.986 102.352C413.986 100.888 415.306 99.952 417.034 99.952C418.378 99.952 419.842 100.576 420.778 101.44L421.858 99.496C420.61 98.32 418.81 97.768 417.13 97.768C413.986 97.768 411.586 99.616 411.586 102.472C411.586 107.752 419.77 106.912 419.77 110.656C419.77 112.12 418.57 113.08 416.794 113.08C415.186 113.08 413.554 112.24 412.522 111.256L411.178 113.056ZM441.104 115H446.744C451.904 115 455.312 111.88 455.312 106.504C455.312 101.152 451.904 98.056 446.744 98.056H441.104V115ZM443.48 112.936V100.12H446.576C450.344 100.12 452.864 102.352 452.864 106.504C452.864 110.704 450.368 112.936 446.576 112.936H443.48ZM463.599 115H473.871V112.936H465.975V107.488H472.047V105.424H465.975V100.12H473.463V98.056H463.599V115ZM486.194 115H488.69L494.882 98.056H492.362L488.114 110.032C487.802 110.944 487.466 112.36 487.466 112.36H487.418C487.418 112.36 487.058 110.944 486.77 110.032L482.546 98.056H480.002L486.194 115ZM502.191 115H512.463V112.936H504.567V107.488H510.639V105.424H504.567V100.12H512.055V98.056H502.191V115ZM520.538 115H530.522V112.936H522.914V98.056H520.538V115ZM536.189 106.408C536.189 111.4 539.861 115.288 544.901 115.288C549.941 115.288 553.589 111.4 553.589 106.408C553.589 101.536 549.941 97.768 544.901 97.768C539.861 97.768 536.189 101.536 536.189 106.408ZM538.637 106.408C538.637 102.736 541.277 99.928 544.901 99.928C548.501 99.928 551.141 102.736 551.141 106.408C551.141 110.2 548.501 113.104 544.901 113.104C541.277 113.104 538.637 110.2 538.637 106.408ZM561.802 115H564.178V108.736H568.018C571.114 108.736 573.322 106.576 573.322 103.36C573.322 100.144 571.114 98.056 568.018 98.056H561.802V115ZM564.178 106.672V100.12H567.658C569.65 100.12 570.922 101.344 570.922 103.36C570.922 105.4 569.65 106.672 567.634 106.672H564.178ZM580.509 115H582.885L583.701 104.32C583.797 103.288 583.749 101.776 583.749 101.776H583.797C583.797 101.776 584.325 103.408 584.709 104.32L588.069 111.952H590.181L593.565 104.32C593.949 103.384 594.477 101.824 594.477 101.824H594.525C594.525 101.824 594.477 103.288 594.573 104.32L595.389 115H597.741L596.373 98.056H593.901L589.989 107.224C589.605 108.16 589.149 109.504 589.149 109.504H589.101C589.101 109.504 588.669 108.16 588.285 107.224L584.373 98.056H581.901L580.509 115ZM606.371 115H616.643V112.936H608.747V107.488H614.819V105.424H608.747V100.12H616.235V98.056H606.371V115ZM624.718 115H627.094V104.008C627.094 103.048 626.95 101.536 626.95 101.536H626.998C626.998 101.536 627.79 103.072 628.39 104.008L635.95 115H638.278V98.056H635.926V109.048C635.926 110.008 636.07 111.52 636.07 111.52H636.022C636.022 111.52 635.23 109.984 634.63 109.048L627.07 98.056H624.718V115ZM651.525 115H653.877V100.12H659.709V98.056H645.693V100.12H651.525V115ZM676.172 106.432C676.172 111.4 679.604 115.288 684.86 115.288C687.86 115.288 689.972 114.04 691.412 112.6L690.14 110.896C688.772 112.264 686.828 113.104 684.932 113.104C680.996 113.104 678.62 110.008 678.62 106.408C678.62 102.832 680.948 99.928 684.884 99.928C686.636 99.928 688.532 100.672 689.78 101.776L690.98 100C689.348 98.44 686.972 97.768 684.788 97.768C679.748 97.768 676.172 101.512 676.172 106.432ZM697.729 106.408C697.729 111.4 701.401 115.288 706.441 115.288C711.481 115.288 715.129 111.4 715.129 106.408C715.129 101.536 711.481 97.768 706.441 97.768C701.401 97.768 697.729 101.536 697.729 106.408ZM700.177 106.408C700.177 102.736 702.817 99.928 706.441 99.928C710.041 99.928 712.681 102.736 712.681 106.408C712.681 110.2 710.041 113.104 706.441 113.104C702.817 113.104 700.177 110.2 700.177 106.408ZM722.695 115H725.071L725.887 104.32C725.983 103.288 725.935 101.776 725.935 101.776H725.983C725.983 101.776 726.511 103.408 726.895 104.32L730.255 111.952H732.367L735.751 104.32C736.135 103.384 736.663 101.824 736.663 101.824H736.711C736.711 101.824 736.663 103.288 736.759 104.32L737.575 115H739.927L738.559 98.056H736.087L732.175 107.224C731.791 108.16 731.335 109.504 731.335 109.504H731.287C731.287 109.504 730.855 108.16 730.471 107.224L726.559 98.056H724.087L722.695 115ZM748.557 115H750.933V108.736H754.773C757.869 108.736 760.077 106.576 760.077 103.36C760.077 100.144 757.869 98.056 754.773 98.056H748.557V115ZM750.933 106.672V100.12H754.413C756.405 100.12 757.677 101.344 757.677 103.36C757.677 105.4 756.405 106.672 754.389 106.672H750.933ZM765.102 115H767.526L769.23 110.128H775.614L777.318 115H779.766L773.694 98.056H771.174L765.102 115ZM769.854 108.16L771.75 102.808C772.038 101.92 772.398 100.384 772.398 100.384H772.446C772.446 100.384 772.83 101.92 773.118 102.808L774.99 108.16H769.854ZM787.149 115H789.525V104.008C789.525 103.048 789.381 101.536 789.381 101.536H789.429C789.429 101.536 790.221 103.072 790.821 104.008L798.381 115H800.709V98.056H798.357V109.048C798.357 110.008 798.501 111.52 798.501 111.52H798.453C798.453 111.52 797.661 109.984 797.061 109.048L789.501 98.056H787.149V115ZM813.692 115H816.044V107.824L821.732 98.056H819.044L815.924 103.624C815.396 104.608 814.892 105.76 814.892 105.76H814.844C814.844 105.76 814.316 104.608 813.812 103.624L810.692 98.056H808.004L813.692 107.824V115Z" fill="#0075FF"/>
</svg>
