<svg width="340" height="85" viewBox="0 0 340 85" fill="none" xmlns="http://www.w3.org/2000/svg">
<rect width="340" height="85" rx="42.5" fill="url(#paint0_linear)"/>
<path d="M52.624 50.0066C54.256 51.6386 56.608 52.4546 58.84 52.4546C62.8 52.4546 64.936 49.9826 64.936 47.1026C64.936 41.6786 57.352 42.2546 57.352 39.8066C57.352 39.1106 57.904 38.5826 59.176 38.5826C60.52 38.5826 62.008 39.2546 62.968 40.0946L64.744 36.6626C63.256 35.3426 61.288 34.7186 59.368 34.7186C55.768 34.7186 53.152 36.8066 53.152 39.9746C53.152 45.3506 60.736 44.9666 60.736 47.3906C60.736 48.0626 60.136 48.5906 58.96 48.5906C57.424 48.5906 55.792 47.6546 54.832 46.8146L52.624 50.0066ZM68.8047 52.1666H79.8927V48.5666H73.0047V45.3266H78.2367V41.7266H73.0047V38.6066H79.5567V35.0066H68.8047V52.1666ZM83.7859 52.1666H94.8739V48.5666H87.9859V45.3266H93.2179V41.7266H87.9859V38.6066H94.5379V35.0066H83.7859V52.1666ZM105.031 43.4786C105.031 48.5186 108.679 52.4546 114.007 52.4546C119.335 52.4546 122.983 48.5186 122.983 43.4786C122.983 38.5586 119.335 34.7186 114.007 34.7186C108.679 34.7186 105.031 38.5586 105.031 43.4786ZM109.375 43.4786C109.375 40.6706 111.295 38.5586 114.007 38.5586C116.719 38.5586 118.639 40.6706 118.639 43.4786C118.639 46.4066 116.719 48.6146 114.007 48.6146C111.295 48.6146 109.375 46.4066 109.375 43.4786ZM126.663 45.8546C126.663 49.7186 129.495 52.4546 133.863 52.4546C138.183 52.4546 141.015 49.7186 141.015 45.8546V35.0066H136.815V45.8546C136.815 47.6546 135.639 48.6146 133.839 48.6146C132.039 48.6146 130.863 47.6546 130.863 45.8546V35.0066H126.663V45.8546ZM145.633 52.1666H149.833V46.3826H151.801L154.849 52.1666H159.529L156.193 46.1666C155.785 45.4466 155.545 45.1346 155.545 45.1346V45.0866C157.249 44.2226 158.113 42.2306 158.113 40.4066C158.113 37.9106 156.889 36.1586 154.945 35.4146C154.201 35.1266 153.361 35.0066 151.609 35.0066H145.633V52.1666ZM149.833 42.7826V38.6066H151.249C151.945 38.6066 152.449 38.6786 152.833 38.8466C153.625 39.1586 153.841 39.8066 153.841 40.6706C153.841 42.0386 153.001 42.7826 151.657 42.7826H149.833ZM168.419 50.0066C170.051 51.6386 172.403 52.4546 174.635 52.4546C178.595 52.4546 180.731 49.9826 180.731 47.1026C180.731 41.6786 173.147 42.2546 173.147 39.8066C173.147 39.1106 173.699 38.5826 174.971 38.5826C176.315 38.5826 177.803 39.2546 178.763 40.0946L180.539 36.6626C179.051 35.3426 177.083 34.7186 175.163 34.7186C171.563 34.7186 168.947 36.8066 168.947 39.9746C168.947 45.3506 176.531 44.9666 176.531 47.3906C176.531 48.0626 175.931 48.5906 174.755 48.5906C173.219 48.5906 171.587 47.6546 170.627 46.8146L168.419 50.0066ZM184.6 52.1666H195.688V48.5666H188.8V45.3266H194.032V41.7266H188.8V38.6066H195.352V35.0066H184.6V52.1666ZM199.581 52.1666H203.781V46.3826H205.749L208.797 52.1666H213.477L210.141 46.1666C209.733 45.4466 209.493 45.1346 209.493 45.1346V45.0866C211.197 44.2226 212.061 42.2306 212.061 40.4066C212.061 37.9106 210.837 36.1586 208.893 35.4146C208.149 35.1266 207.309 35.0066 205.557 35.0066H199.581V52.1666ZM203.781 42.7826V38.6066H205.197C205.893 38.6066 206.397 38.6786 206.781 38.8466C207.573 39.1586 207.789 39.8066 207.789 40.6706C207.789 42.0386 206.949 42.7826 205.605 42.7826H203.781ZM220.401 52.1666H224.769L230.817 35.0066H226.329L223.257 44.7746C222.921 45.8546 222.609 47.5346 222.609 47.5346H222.561C222.561 47.5346 222.249 45.8546 221.913 44.7746L218.889 35.0066H214.329L220.401 52.1666ZM233.669 52.1666H237.869V35.0066H233.669V52.1666ZM241.761 43.5506C241.761 48.6386 245.241 52.4546 250.761 52.4546C253.905 52.4546 256.161 51.1346 257.673 49.5746L255.513 46.5026C254.337 47.6786 252.657 48.6146 250.953 48.6146C247.641 48.6146 246.105 45.9986 246.105 43.4546C246.105 40.9826 247.521 38.5586 250.953 38.5586C252.489 38.5586 254.145 39.3506 255.249 40.3106L257.193 37.1426C255.513 35.4866 253.065 34.7186 250.761 34.7186C245.457 34.7186 241.761 38.5586 241.761 43.5506ZM261.006 52.1666H272.094V48.5666H265.206V45.3266H270.438V41.7266H265.206V38.6066H271.758V35.0066H261.006V52.1666ZM274.694 50.0066C276.326 51.6386 278.678 52.4546 280.91 52.4546C284.87 52.4546 287.006 49.9826 287.006 47.1026C287.006 41.6786 279.422 42.2546 279.422 39.8066C279.422 39.1106 279.974 38.5826 281.246 38.5826C282.59 38.5826 284.078 39.2546 285.038 40.0946L286.814 36.6626C285.326 35.3426 283.358 34.7186 281.438 34.7186C277.838 34.7186 275.222 36.8066 275.222 39.9746C275.222 45.3506 282.806 44.9666 282.806 47.3906C282.806 48.0626 282.206 48.5906 281.03 48.5906C279.494 48.5906 277.862 47.6546 276.902 46.8146L274.694 50.0066Z" fill="white"/>
<defs>
<linearGradient id="paint0_linear" x1="0" y1="0" x2="322.244" y2="160.623" gradientUnits="userSpaceOnUse">
<stop stop-color="#FD0079"/>
<stop offset="1" stop-color="#FFD200"/>
</linearGradient>
</defs>
</svg>
