<?xml version="1.0" encoding="utf-8"?>
<!-- Generator: Adobe Illustrator 21.1.0, SVG Export Plug-In . SVG Version: 6.00 Build 0)  -->
<svg version="1.1" id="Layer_1" xmlns="http://www.w3.org/2000/svg" xmlns:xlink="http://www.w3.org/1999/xlink" x="0px" y="0px"
	 width="20.1vh" viewBox="0 0 294 348" style="enable-background:new 0 0 370 278;" xml:space="preserve">
<style type="text/css">
	.st0{fill:url(#SVGID_1_);}
	.st1{fill:url(#SVGID_2_);}
	.st2{fill:url(#SVGID_3_);}
	.st3{fill:url(#SVGID_4_);}
	.st4{fill:url(#SVGID_5_);}
	.st5{fill:url(#SVGID_6_);}
	.st6{fill:url(#SVGID_7_);}
	.st7{fill:url(#SVGID_8_);}
	.st8{opacity:0.86;fill:url(#SVGID_9_);enable-background:new    ;}
	.st9{fill:url(#SVGID_10_);}
	.st10{fill:#606060;}
	.st11{fill:url(#SVGID_11_);}
</style>
<g>
	
		<linearGradient id="SVGID_1_" gradientUnits="userSpaceOnUse" x1="73.0561" y1="84.6816" x2="117.831" y2="84.6816" gradientTransform="matrix(6.123234e-17 -1 -1 -6.123234e-17 323.7976 325.0684)">
		<stop  offset="0" style="stop-color:#FBB03B"/>
		<stop  offset="0.9568" style="stop-color:#ED1C24"/>
	</linearGradient>
	<path class="st0" d="M182.8,222l27.1,24.7c3.6,3.4,8.4,5.3,13.3,5.3l70.8-0.7c3,0,3.9-4.1,1.2-5.4l-75.5-38.2
		c-0.9-0.4-2-0.6-2.9-0.4l-31.9,7C181.4,215.1,180.2,219.5,182.8,222z"/>
	
		<linearGradient id="SVGID_2_" gradientUnits="userSpaceOnUse" x1="76.2052" y1="84.3216" x2="120.9801" y2="84.3216" gradientTransform="matrix(6.123234e-17 -1 -1 -6.123234e-17 323.7976 325.0684)">
		<stop  offset="0" style="stop-color:#ABD5FF"/>
		<stop  offset="8.307960e-02" style="stop-color:#A4D0FF"/>
		<stop  offset="0.2018" style="stop-color:#91C1FE"/>
		<stop  offset="0.3419" style="stop-color:#73A9FD"/>
		<stop  offset="0.4838" style="stop-color:#4C8BFC"/>
		<stop  offset="0.5946" style="stop-color:#4888FC"/>
		<stop  offset="0.7162" style="stop-color:#3A7EFD"/>
		<stop  offset="0.843" style="stop-color:#246FFE"/>
		<stop  offset="0.9724" style="stop-color:#0659FF"/>
		<stop  offset="0.9944" style="stop-color:#0055FF"/>
	</linearGradient>
	<path class="st1" d="M183.7,218.9l27.1,24.7c3.6,3.4,8.4,5.3,13.3,5.3l70.8-0.7c3,0,1.6-1.8-1.2-3.2l-73.1-40.4
		c-0.9-0.4-2-0.6-2.9-0.4l-31.9,7C182.3,211.9,181.1,216.4,183.7,218.9z"/>
	
		<linearGradient id="SVGID_3_" gradientUnits="userSpaceOnUse" x1="251.035" y1="84.6816" x2="295.8099" y2="84.6816" gradientTransform="matrix(6.123234e-17 -1 -1 -6.123234e-17 323.7976 325.0684)">
		<stop  offset="0" style="stop-color:#FBB03B"/>
		<stop  offset="0.9568" style="stop-color:#ED1C24"/>
	</linearGradient>
	<path class="st2" d="M182.8,59.3l27.1-24.7c3.6-3.4,8.4-5.3,13.3-5.3L294,30c3,0,3.9,4.1,1.2,5.4l-75.5,38.2
		c-0.9,0.4-2,0.6-2.9,0.4L185,67C181.4,66.2,180.2,61.8,182.8,59.3z"/>
	
		<linearGradient id="SVGID_4_" gradientUnits="userSpaceOnUse" x1="247.886" y1="84.3216" x2="292.6608" y2="84.3216" gradientTransform="matrix(6.123234e-17 -1 -1 -6.123234e-17 323.7976 325.0684)">
		<stop  offset="0" style="stop-color:#ABD5FF"/>
		<stop  offset="8.307960e-02" style="stop-color:#A4D0FF"/>
		<stop  offset="0.2018" style="stop-color:#91C1FE"/>
		<stop  offset="0.3419" style="stop-color:#73A9FD"/>
		<stop  offset="0.4838" style="stop-color:#4C8BFC"/>
		<stop  offset="0.5946" style="stop-color:#4888FC"/>
		<stop  offset="0.7162" style="stop-color:#3A7EFD"/>
		<stop  offset="0.843" style="stop-color:#246FFE"/>
		<stop  offset="0.9724" style="stop-color:#0659FF"/>
		<stop  offset="0.9944" style="stop-color:#0055FF"/>
	</linearGradient>
	<path class="st3" d="M183.7,62.4l27.1-24.7c3.6-3.4,8.4-5.3,13.3-5.3l70.8,0.7c3,0,1.6,1.8-1.2,3.2l-73.1,40.4
		c-0.9,0.4-2,0.6-2.9,0.4l-31.9-7C182.3,69.3,181.1,64.9,183.7,62.4z"/>
	
		<linearGradient id="SVGID_5_" gradientUnits="userSpaceOnUse" x1="102.965" y1="95.1445" x2="264.1251" y2="95.1445" gradientTransform="matrix(6.123234e-17 -1 1 6.123234e-17 43.7976 325.0684)">
		<stop  offset="0" style="stop-color:#FFFFFF"/>
		<stop  offset="0.1931" style="stop-color:#FDF8FE"/>
		<stop  offset="0.4715" style="stop-color:#F6E5FC"/>
		<stop  offset="0.8002" style="stop-color:#EBC6F9"/>
		<stop  offset="0.9944" style="stop-color:#E3B0F7"/>
	</linearGradient>
	<path class="st4" d="M71.3,92.9c-31.7,22.6-47.5,48.6-47.5,48.6s15.8,26,47.5,48.6c31.7,22.6,102.2,38.2,164,29.5
		c0,0,14.4-29.5,18.7-76.4c0.1-0.9,0.1-2.6,0-3.5c-4.3-46.9-18.7-76.4-18.7-76.4C173.4,54.7,102.9,70.3,71.3,92.9z M205.5,141.5
		c0,11.9-9.7,21.6-21.6,21.6s-21.6-9.7-21.6-21.6c0-11.9,9.7-21.6,21.6-21.6S205.5,129.6,205.5,141.5z"/>
	
		<linearGradient id="SVGID_6_" gradientUnits="userSpaceOnUse" x1="126.4618" y1="56.9952" x2="240.6283" y2="56.9952" gradientTransform="matrix(6.123234e-17 -1 -1 -6.123234e-17 323.7976 325.0684)">
		<stop  offset="0" style="stop-color:#ABD5FF"/>
		<stop  offset="8.307960e-02" style="stop-color:#A4D0FF"/>
		<stop  offset="0.2018" style="stop-color:#91C1FE"/>
		<stop  offset="0.3419" style="stop-color:#73A9FD"/>
		<stop  offset="0.4838" style="stop-color:#4C8BFC"/>
		<stop  offset="0.5946" style="stop-color:#4888FC"/>
		<stop  offset="0.7162" style="stop-color:#3A7EFD"/>
		<stop  offset="0.843" style="stop-color:#246FFE"/>
		<stop  offset="0.9724" style="stop-color:#0659FF"/>
		<stop  offset="0.9944" style="stop-color:#0055FF"/>
	</linearGradient>
	<path class="st5" d="M292.4,142.5c0-18-3.7-39.6-10.3-55.4c-0.6-1.4-3-2.5-6-2.6c-5.1-0.2-31,3.9-34.9,3.7
		c7.5,16.7,11.7,35.1,11.7,54.4c0,18.5-3.8,36.2-10.8,52.4c3.7-0.2,29.2,4,34.1,3.7c3.1-0.1,5.6-1.3,6-2.8
		C284.7,187.6,292.4,157.4,292.4,142.5z"/>
	
		<linearGradient id="SVGID_7_" gradientUnits="userSpaceOnUse" x1="120.3195" y1="256.3751" x2="246.7706" y2="256.3751" gradientTransform="matrix(6.123234e-17 -1 -1 -6.123234e-17 323.7976 325.0684)">
		<stop  offset="0" style="stop-color:#FBB03B"/>
		<stop  offset="0.9568" style="stop-color:#ED1C24"/>
	</linearGradient>
	<path class="st6" d="M97.2,78.5L97.2,78.5C97.2,78.5,97.2,78.5,97.2,78.5c-0.2,0.1-0.4,0.2-0.6,0.3c-9.6,4.2-18.1,9-25.3,14.2
		c-31.7,22.6-47.5,48.6-47.5,48.6s15.8,26,47.5,48.6c7.2,5.1,15.7,9.9,25.3,14.1c0.5,0.3,1,0.5,1.5,0.5c7.2,0,13-28.3,13-63.2
		s-5.8-63.2-13-63.2C97.8,78.3,97.5,78.4,97.2,78.5z"/>
	
		<linearGradient id="SVGID_8_" gradientUnits="userSpaceOnUse" x1="104.3515" y1="81.6291" x2="262.7386" y2="81.6291" gradientTransform="matrix(6.123234e-17 -1 -1 -6.123234e-17 323.7976 325.0684)">
		<stop  offset="0" style="stop-color:#FBB03B"/>
		<stop  offset="0.9568" style="stop-color:#ED1C24"/>
	</linearGradient>
	<path class="st7" d="M257.3,143c0-26.8-3.5-52.3-9.9-75.8c-0.6-2.1-2.9-3.7-5.8-3.9c-4.9-0.4-10.8-0.7-14.6-0.9
		c7.2,24.8,11.3,52.1,11.3,80.7c0,27.5-3.7,53.7-10.4,77.7c3.5-0.2,9.1-0.5,13.7-0.9c3-0.2,5.4-1.9,5.8-4.2
		C249.9,203.5,257.3,165,257.3,143z"/>
	
		<linearGradient id="SVGID_9_" gradientUnits="userSpaceOnUse" x1="181.3529" y1="65.833" x2="209.0808" y2="65.833" gradientTransform="matrix(6.123234e-17 -1 -1 -6.123234e-17 323.7976 325.0684)">
		<stop  offset="0" style="stop-color:#000000"/>
		<stop  offset="0.216" style="stop-color:#3D3D3D;stop-opacity:0.784"/>
		<stop  offset="0.6041" style="stop-color:#A4A4A4;stop-opacity:0.3959"/>
		<stop  offset="0.8737" style="stop-color:#E6E6E6;stop-opacity:0.1263"/>
		<stop  offset="1" style="stop-color:#FFFFFF;stop-opacity:0"/>
	</linearGradient>
	<path class="st8" d="M290,116l-39.8,0.1c-1.9,0-20.8,15.4-26,19.6c-0.9,0.7-1.3,1.9-1.2,3c0.3,2.3,1.2,5.1,2.9,5.1l66.9-6.9
		L290,116z"/>
	
		<linearGradient id="SVGID_10_" gradientUnits="userSpaceOnUse" x1="178.7366" y1="40.783" x2="188.0897" y2="40.783" gradientTransform="matrix(6.123234e-17 -1 -1 -6.123234e-17 323.7976 325.0684)">
		<stop  offset="0" style="stop-color:#FBB03B"/>
		<stop  offset="0.9568" style="stop-color:#ED1C24"/>
	</linearGradient>
	<path class="st9" d="M345.1,140.2v2.9c0,1.8-1.5,3.3-3.3,3.3H224.2c-1.8,0-3.3-1.5-3.3-3.3v-2.9c0-1.8,1.5-3.3,3.3-3.3h117.6
		C343.6,137,345.1,138.4,345.1,140.2z"/>
	<circle class="st10" cx="171.5" cy="141.5" r="25.7"/>
	<g>
		<g>
			
				<linearGradient id="SVGID_11_" gradientUnits="userSpaceOnUse" x1="141.8159" y1="127.1302" x2="225.2742" y2="127.1302" gradientTransform="matrix(6.123234e-17 -1 1 6.123234e-17 43.7976 325.0684)">
				<stop  offset="0" style="stop-color:#FBB03B"/>
				<stop  offset="0.9568" style="stop-color:#ED1C24"/>
			</linearGradient>
			<path class="st11" d="M212.7,141.5c0,23-18.7,41.7-41.7,41.7s-41.7-18.7-41.7-41.7s18.7-41.7,41.7-41.7S212.7,118.5,212.7,141.5z
				 M146.8,141.5c0,13.3,10.8,24.2,24.2,24.2s24.2-10.8,24.2-24.2s-10.8-24.2-24.2-24.2S146.8,128.2,146.8,141.5z"/>
		</g>
	</g>
</g>
</svg>
