<svg width="100" height="29" viewBox="0 0 100 29" fill="none" 
    xmlns="http://www.w3.org/2000/svg">
    <path d="M13.7237 11.2806C12.0825 10.2711 10.234 9.60962 8.33365 9.33112C6.86514 9.12227 5.46584 8.6175 4.18742 7.86905C3.42728 7.45134 2.94349 6.68548 2.909 5.81516C2.96077 4.84044 3.47905 3.97012 4.29103 3.43053C5.43127 2.66467 6.76153 2.2817 8.12635 2.29911C10.2685 2.29911 11.927 3.3957 13.3955 4.37042C13.6546 4.54453 13.9656 4.6141 14.2766 4.54453C14.5703 4.47489 14.8294 4.30085 14.9849 4.03976C15.3304 3.50017 15.1922 2.78647 14.6567 2.4384C13.1018 1.41145 10.9596 0.00153892 8.12635 0.00153892C6.27782 -0.0332835 4.46384 0.523718 2.94349 1.58549C1.50962 2.54279 0.6458 4.12674 0.611235 5.83257C0.6458 7.46875 1.50962 8.98306 2.92629 9.81856C4.46384 10.7584 6.17413 11.3677 7.93626 11.6114C9.52566 11.855 11.0459 12.3772 12.428 13.1953C13.4128 13.8741 13.862 14.6051 13.862 15.5625C13.8101 16.6417 13.24 17.6164 12.3416 18.1734C11.1151 19.0089 9.66391 19.4441 8.17812 19.4092C5.24126 19.4441 2.58074 17.4945 1.87245 16.9202C1.64779 16.7113 1.33689 16.6069 1.02591 16.6417C0.714922 16.6765 0.421221 16.8157 0.231206 17.0768C-0.13162 17.5816 -0.0624957 18.2778 0.403939 18.6956C1.8206 19.8269 4.68842 21.7242 8.17812 21.759C10.1476 21.7764 12.0652 21.1846 13.6892 20.0533C15.1922 19.0437 16.1251 17.3727 16.177 15.5625C16.1424 13.8045 15.2094 12.1858 13.7237 11.2806Z" fill="white"/>
    <path d="M29.7214 7.29464C29.7214 6.98132 29.5831 6.68548 29.3585 6.47655C28.9094 6.0066 28.1493 5.98919 27.6828 6.44173C27.6655 6.45914 27.6655 6.45914 27.6483 6.47655L20.1332 14.0308V1.55067C20.1332 0.871866 19.5804 0.332275 18.9066 0.332275C18.2501 0.332275 17.7145 0.871866 17.6973 1.55067V20.5406C17.6973 21.2195 18.2501 21.759 18.9238 21.759C19.5804 21.759 20.1159 21.2195 20.1332 20.5406V17.4946L22.4827 15.1273L27.51 21.2369C27.7173 21.585 28.0974 21.7765 28.512 21.759C28.8057 21.759 29.0994 21.6547 29.3413 21.4631C29.825 21.0106 29.8595 20.2621 29.4277 19.7574L24.2276 13.3868L29.3585 8.19979C29.5831 7.97352 29.7214 7.64279 29.7214 7.29464Z" fill="white"/>
    <path d="M59.0732 11.2806C57.4319 10.2711 55.5834 9.60962 53.6831 9.33112C52.2146 9.12227 50.8153 8.6175 49.5368 7.86905C48.7767 7.45134 48.2929 6.68548 48.2584 5.81516C48.3102 4.84044 48.8285 3.97012 49.6404 3.43053C50.7807 2.66467 52.1109 2.2817 53.4758 2.29911C55.6179 2.29911 57.2765 3.39571 58.7449 4.37042C59.004 4.54453 59.315 4.6141 59.626 4.54453C59.9197 4.47489 60.1788 4.30085 60.3343 4.03976C60.6798 3.50017 60.5416 2.78647 60.0061 2.4384C58.434 1.41145 56.309 0.00153892 53.4758 0.00153892C51.6272 -0.0332835 49.8133 0.523718 48.293 1.58549C46.8763 2.52538 46.0125 4.10933 45.9779 5.81516C46.0125 7.45134 46.8763 8.96564 48.293 9.80115C49.8305 10.741 51.5408 11.3503 53.303 11.594C54.8924 11.8376 56.4126 12.3598 57.7947 13.1779C58.7794 13.8567 59.2286 14.5877 59.2286 15.5451C59.1768 16.6243 58.6067 17.599 57.7083 18.156C56.4818 18.9915 55.0306 19.4266 53.5448 19.3918C50.5734 19.4441 47.9647 17.4771 47.2391 16.9028C47.0145 16.6939 46.7036 16.5895 46.3926 16.6243C46.0816 16.6591 45.7879 16.7983 45.5979 17.0594C45.2351 17.5642 45.3042 18.2604 45.7706 18.6782C47.1873 19.8096 50.0551 21.7068 53.5448 21.7416C55.5143 21.759 57.4319 21.1672 59.0559 20.0359C60.5589 19.0263 61.4918 17.3553 61.5437 15.5451C61.4918 13.8045 60.5761 12.1858 59.0732 11.2806Z" fill="white"/>
    <path d="M75.779 18.8C74.4833 20.2273 72.3929 20.7321 70.5444 20.0359C72.341 20.4362 74.155 19.357 74.5697 17.6338C74.9843 15.9106 73.8613 14.1874 72.0646 13.787C71.5464 13.6652 70.9935 13.6827 70.4752 13.8045C70.0261 13.9263 69.5424 13.6827 69.4214 13.2475C69.4041 13.1779 69.3868 13.1082 69.3868 13.0386C69.2487 12.2553 70.4752 11.7331 70.4752 11.7331C72.8593 10.7933 75.589 11.8898 76.5737 14.17C77.2474 15.7366 76.9364 17.5294 75.779 18.8Z" fill="white"/>
    <path d="M64.9815 19.0437C67.1238 21.5327 70.5963 22.4031 73.6541 21.202C70.6654 21.8983 67.6939 20.0184 66.9856 17.0246C66.2945 14.0134 68.1603 11.0195 71.1318 10.3059C71.9956 10.097 72.8939 10.1144 73.7578 10.3407C73.7578 10.3407 75.278 10.7758 75.5718 8.98303C75.7963 7.60794 73.7578 6.7202 73.7578 6.7202C69.8016 5.0841 65.2752 6.99871 63.6513 10.9847C62.5629 13.7001 63.0639 16.8157 64.9815 19.0437Z" fill="white"/>
    <path d="M82.7412 3.15205C82.9485 2.90837 83.3978 2.78649 84.1406 2.78649C84.8143 2.78649 85.3499 2.22957 85.3499 1.55069C85.3499 0.889298 84.8143 0.349708 84.1406 0.332297C82.9312 0.24524 81.7565 0.680364 80.8927 1.53328C80.2017 2.36878 79.8734 3.44796 79.8389 5.18853V6.1285H78.3704C77.6967 6.1285 77.1611 6.68551 77.1611 7.3469C77.1611 8.00837 77.714 8.56529 78.3704 8.56529H79.8389V20.5233C79.8389 21.2021 80.3917 21.7417 81.0655 21.7417C81.722 21.7417 82.2575 21.2021 82.2748 20.5233V8.56529H83.6051C84.2788 8.56529 84.8143 8.00837 84.8143 7.3469C84.8143 6.68551 84.2615 6.1285 83.6051 6.1285H82.2748V5.18853C82.2748 3.86567 82.5685 3.36091 82.7412 3.15205Z" fill="white"/>
    <path d="M93.2278 19.2874C92.485 19.2874 92.0357 19.1655 91.8285 18.9218C91.6557 18.713 91.362 18.2082 91.362 16.8853V15.8758V8.56522H92.8477C93.5215 8.56522 94.0571 8.0083 94.0571 7.34683C94.0571 6.68544 93.5043 6.12844 92.8477 6.12844H91.362V1.53321C91.362 0.871821 90.8265 0.332231 90.1527 0.314819C89.4789 0.314819 88.9262 0.85441 88.9262 1.53321V6.12844H87.6132C86.9394 6.12844 86.4038 6.68544 86.4038 7.34683C86.4038 8.0083 86.9567 8.56522 87.6132 8.56522H88.9262V16.8853C88.9606 18.6259 89.2716 19.7051 89.9799 20.5406C90.8437 21.3935 92.0185 21.8286 93.2278 21.7416C93.8843 21.7416 94.4198 21.202 94.4371 20.5232C94.4371 19.8443 93.9016 19.2874 93.2278 19.2874Z" fill="white"/>
    <path d="M43.7839 6.9466C43.7494 6.40701 43.3347 6.16333 42.7992 6.12851C42.7992 6.12851 42.5055 6.07627 42.1599 6.18066C41.7108 6.28513 41.3998 6.49399 41.3652 6.96393C41.3652 6.98134 41.3652 6.99875 41.3652 7.01617C41.3652 7.0684 41.3652 7.10322 41.3652 7.13804V15.4407C41.3652 17.5816 39.6377 19.3222 37.5127 19.3396C35.3878 19.3396 33.6602 17.599 33.6429 15.4581V7.10322C33.6256 6.44175 33.0901 6.09369 32.4335 6.1111H32.4163C31.7598 6.1111 31.2415 6.44175 31.2415 7.10322V15.4059C31.207 18.8697 33.9711 21.7068 37.4263 21.7417C38.843 21.7591 40.2423 21.2717 41.348 20.384C41.5898 25.3621 37.9619 26.6154 35.4223 26.5806C34.6622 26.5632 33.9193 26.389 33.2282 26.041C32.5891 25.8321 31.898 26.1628 31.6907 26.8068C31.5007 27.3812 31.7598 28.0078 32.2954 28.2863C33.2801 28.7388 34.3512 28.9826 35.4223 28.9999C39.3958 29.0173 44.0603 26.598 43.7666 20.1229V7.10322C43.7839 7.08581 43.7839 6.98134 43.7839 6.9466Z" fill="white"/>
    <path d="M96.6311 20.4013V19.9836H97.4258V19.0785H97.8231V19.9836H99.0498C99.1879 19.9836 99.3261 19.9314 99.4298 19.8269C99.5335 19.7225 99.5853 19.6007 99.5853 19.4615V19.0785H99.9826V19.4615C99.9826 19.7225 99.8962 19.9314 99.7062 20.1228C99.5162 20.297 99.2916 20.3839 99.0498 20.3839H96.6311V20.4013Z" fill="white"/>
    <path d="M99.9828 16.3284C99.9828 16.5373 99.9137 16.7113 99.7583 16.868C99.6027 17.0246 99.43 17.0943 99.2227 17.0943H98.048C97.8752 17.0943 97.737 17.0246 97.616 16.9028C97.4952 16.7809 97.426 16.6243 97.426 16.4502V15.4233C97.426 15.2492 97.4952 15.1099 97.616 14.9881C97.737 14.8663 97.8925 14.7967 98.048 14.7967H98.8945V16.6766H99.2054C99.3954 16.6766 99.5683 16.5199 99.5683 16.311V14.9881H99.9828V16.3284ZM98.4971 16.6765V15.2144H98.048C97.927 15.2144 97.8233 15.3189 97.8233 15.4407V16.4676C97.8233 16.5895 97.927 16.6939 98.048 16.6939H98.4971V16.6765Z" fill="white"/>
    <path d="M99.9828 11.855C99.9828 12.0987 99.8964 12.3076 99.7237 12.4816C99.5509 12.6557 99.3435 12.7427 99.1017 12.7427H98.2898C98.0479 12.7427 97.8406 12.6557 97.6678 12.4816C97.4951 12.3076 97.4087 12.0987 97.4087 11.855V10.5844H97.8233V11.855C97.8233 12.1161 98.0306 12.325 98.2898 12.325H99.1018C99.3609 12.325 99.5682 12.1161 99.5682 11.855V10.5844H99.9828V11.855Z" fill="white"/>
    <path d="M97.8233 8.13012H99.9829V8.54783H96.5449V8.13012H97.426V7.17282C97.426 6.91173 97.5124 6.70279 97.7024 6.51135C97.8925 6.31991 98.117 6.23285 98.3589 6.23285H99.9829V6.65064H98.3589C98.0652 6.65064 97.8233 6.87691 97.8233 7.15541V8.13012Z" fill="white"/>
    <path d="M99.7927 21.8113C99.9072 21.8113 100 21.7178 100 21.6024C100 21.4871 99.9072 21.3936 99.7927 21.3936C99.6783 21.3936 99.5854 21.4871 99.5854 21.6024C99.5854 21.7178 99.6783 21.8113 99.7927 21.8113Z" fill="white"/>
</svg>
