<svg width="37" height="37" viewBox="0 0 37 37" fill="none" xmlns="http://www.w3.org/2000/svg">
<path d="M26.2068 0H10.7901C4.84083 0 0 4.84238 0 10.7932V26.2099C0 32.1592 4.84238 37 10.7932 37H26.2099C32.1592 37 37 32.1576 37 26.2068V10.7901C37 4.84083 32.1576 0 26.2068 0ZM18.5 27.75C13.3986 27.75 9.25 23.6014 9.25 18.5C9.25 13.3986 13.3986 9.25 18.5 9.25C23.6014 9.25 27.75 13.3986 27.75 18.5C27.75 23.6014 23.6014 27.75 18.5 27.75ZM29.2917 9.25C28.4407 9.25 27.75 8.55933 27.75 7.70833C27.75 6.85733 28.4407 6.16667 29.2917 6.16667C30.1427 6.16667 30.8333 6.85733 30.8333 7.70833C30.8333 8.55933 30.1427 9.25 29.2917 9.25Z" fill="white"/>
</svg>
