<svg width="38" height="37" viewBox="0 0 38 37" fill="none" xmlns="http://www.w3.org/2000/svg">
<path d="M1.36378 12.2667H9.03763V36.9429H1.36378V12.2667ZM5.21497 0C7.66832 0 9.66523 1.99691 9.66523 4.45026C9.66523 6.90361 7.66832 8.90052 5.21497 8.90052C2.74736 8.90052 0.764709 6.90361 0.764709 4.45026C0.764709 1.99691 2.74736 0 5.21497 0Z" fill="white"/>
<path d="M13.8588 12.2668H21.2046V15.6473H21.3044C22.3314 13.7074 24.8275 11.6677 28.5646 11.6677C36.3241 11.6677 37.7647 16.7741 37.7647 23.421V36.9429H30.1051V24.9472C30.1051 22.0802 30.0623 18.4002 26.1255 18.4002C22.1317 18.4002 21.5326 21.5239 21.5326 24.7332V36.9429H13.8731L13.8588 12.2668Z" fill="white"/>
</svg>
