<svg width="86" height="86" viewBox="0 0 86 86" fill="none" 
    xmlns="http://www.w3.org/2000/svg">
    <path d="M12.8506 30.1495C19.9477 13.4984 39.1995 5.75338 55.8506 12.8505C72.5017 19.9477 80.2467 39.1994 73.1496 55.8505C66.0524 72.5016 46.8007 80.2466 30.1496 73.1495C13.4985 66.0523 5.75346 46.8006 12.8506 30.1495Z" fill="url(#paint0_linear)"/>
    <path d="M60.7152 28.8266C59.298 31.1534 55.3988 31.3645 52.006 29.2981C48.6133 27.2317 47.0117 23.6703 48.4289 21.3435C49.846 19.0167 53.7452 18.8056 57.138 20.872C60.5308 22.9384 62.1323 26.4998 60.7152 28.8266Z" fill="url(#paint1_linear)"/>
    <path d="M40.335 16.8768C40.6784 17.9989 39.6203 19.3177 37.9715 19.8223C36.3228 20.327 34.7078 19.8264 34.3643 18.7043C34.0209 17.5822 35.079 16.2635 36.7278 15.7588C38.3765 15.2542 39.9915 15.7547 40.335 16.8768Z" fill="url(#paint2_linear)"/>
    <defs>
        <linearGradient id="paint0_linear" x1="57.7462" y1="37.3845" x2="5.78092" y2="57.1736" gradientUnits="userSpaceOnUse">
            <stop stop-color="#B86DDE"/>
            <stop offset="0.994624" stop-color="#295EEE"/>
        </linearGradient>
        <linearGradient id="paint1_linear" x1="51.5849" y1="25.1951" x2="60.6169" y2="21.322" gradientUnits="userSpaceOnUse">
            <stop stop-color="#B86DDE"/>
            <stop offset="0.994624" stop-color="#295EEE"/>
        </linearGradient>
        <linearGradient id="paint2_linear" x1="36.5223" y1="18.7861" x2="37.8492" y2="14.755" gradientUnits="userSpaceOnUse">
            <stop stop-color="#B86DDE"/>
            <stop offset="0.994624" stop-color="#295EEE"/>
        </linearGradient>
    </defs>
</svg>
